<mxfile host="app.diagrams.net" modified="2024-06-24T10:22:57.010Z" agent="Mozilla/5.0 (Windows NT 10.0; Win64; x64) AppleWebKit/537.36 (KHTML, like Gecko) Chrome/126.0.0.0 Safari/537.36" etag="ZmMtFpmR5cEPn3AyEFp6" version="24.5.5" type="github">
  <diagram id="prtHgNgQTEPvFCAcTncT" name="Page-1">
    <mxGraphModel dx="1434" dy="746" grid="1" gridSize="10" guides="1" tooltips="1" connect="1" arrows="1" fold="1" page="1" pageScale="1" pageWidth="827" pageHeight="1169" math="0" shadow="0">
      <root>
        <mxCell id="0" />
        <mxCell id="1" parent="0" />
        <mxCell id="SUTdfqsNbuSgE_qNj4nx-5" style="edgeStyle=orthogonalEdgeStyle;rounded=0;orthogonalLoop=1;jettySize=auto;html=1;exitX=0.25;exitY=1;exitDx=0;exitDy=0;entryX=0.5;entryY=0;entryDx=0;entryDy=0;" edge="1" parent="1" source="SUTdfqsNbuSgE_qNj4nx-1" target="SUTdfqsNbuSgE_qNj4nx-2">
          <mxGeometry relative="1" as="geometry" />
        </mxCell>
        <mxCell id="SUTdfqsNbuSgE_qNj4nx-8" style="edgeStyle=orthogonalEdgeStyle;rounded=0;orthogonalLoop=1;jettySize=auto;html=1;exitX=0.75;exitY=1;exitDx=0;exitDy=0;" edge="1" parent="1" source="SUTdfqsNbuSgE_qNj4nx-1" target="SUTdfqsNbuSgE_qNj4nx-3">
          <mxGeometry relative="1" as="geometry" />
        </mxCell>
        <mxCell id="SUTdfqsNbuSgE_qNj4nx-1" value="OLT" style="rounded=1;whiteSpace=wrap;html=1;" vertex="1" parent="1">
          <mxGeometry x="280" y="170" width="120" height="40" as="geometry" />
        </mxCell>
        <mxCell id="SUTdfqsNbuSgE_qNj4nx-10" value="" style="edgeStyle=orthogonalEdgeStyle;rounded=0;orthogonalLoop=1;jettySize=auto;html=1;exitX=0.25;exitY=1;exitDx=0;exitDy=0;" edge="1" parent="1" source="SUTdfqsNbuSgE_qNj4nx-2" target="SUTdfqsNbuSgE_qNj4nx-9">
          <mxGeometry relative="1" as="geometry" />
        </mxCell>
        <mxCell id="SUTdfqsNbuSgE_qNj4nx-18" style="edgeStyle=orthogonalEdgeStyle;rounded=0;orthogonalLoop=1;jettySize=auto;html=1;exitX=0.75;exitY=1;exitDx=0;exitDy=0;" edge="1" parent="1" source="SUTdfqsNbuSgE_qNj4nx-2" target="SUTdfqsNbuSgE_qNj4nx-16">
          <mxGeometry relative="1" as="geometry" />
        </mxCell>
        <mxCell id="SUTdfqsNbuSgE_qNj4nx-2" value="ONU1&lt;div&gt;WAN:192.168.88.68&lt;br&gt;&lt;div&gt;LAN:192.168.1.1&lt;/div&gt;&lt;/div&gt;" style="rounded=1;whiteSpace=wrap;html=1;" vertex="1" parent="1">
          <mxGeometry x="100" y="327" width="120" height="63" as="geometry" />
        </mxCell>
        <mxCell id="SUTdfqsNbuSgE_qNj4nx-12" value="" style="edgeStyle=orthogonalEdgeStyle;rounded=0;orthogonalLoop=1;jettySize=auto;html=1;exitX=0.25;exitY=1;exitDx=0;exitDy=0;" edge="1" parent="1" source="SUTdfqsNbuSgE_qNj4nx-3" target="SUTdfqsNbuSgE_qNj4nx-11">
          <mxGeometry relative="1" as="geometry" />
        </mxCell>
        <mxCell id="SUTdfqsNbuSgE_qNj4nx-21" style="edgeStyle=orthogonalEdgeStyle;rounded=0;orthogonalLoop=1;jettySize=auto;html=1;exitX=0.575;exitY=1.033;exitDx=0;exitDy=0;entryX=0.5;entryY=0;entryDx=0;entryDy=0;exitPerimeter=0;" edge="1" parent="1" source="SUTdfqsNbuSgE_qNj4nx-11" target="SUTdfqsNbuSgE_qNj4nx-15">
          <mxGeometry relative="1" as="geometry" />
        </mxCell>
        <mxCell id="SUTdfqsNbuSgE_qNj4nx-3" value="ONU2&lt;div&gt;WAN:192.168.88.69&lt;br&gt;&lt;div&gt;LAN:192.168.1.1&lt;/div&gt;&lt;/div&gt;" style="rounded=1;whiteSpace=wrap;html=1;" vertex="1" parent="1">
          <mxGeometry x="450" y="330" width="120" height="70" as="geometry" />
        </mxCell>
        <mxCell id="SUTdfqsNbuSgE_qNj4nx-9" value="Route1&lt;div&gt;192.168.1.100&lt;/div&gt;&lt;div&gt;VPN:192.168.2.3&lt;/div&gt;" style="whiteSpace=wrap;html=1;rounded=1;" vertex="1" parent="1">
          <mxGeometry x="30" y="490" width="120" height="60" as="geometry" />
        </mxCell>
        <mxCell id="SUTdfqsNbuSgE_qNj4nx-11" value="Route2&lt;div&gt;192.168.1.100&lt;/div&gt;&lt;div&gt;VPN:192.168.2.1&lt;/div&gt;" style="rounded=1;whiteSpace=wrap;html=1;" vertex="1" parent="1">
          <mxGeometry x="370" y="490" width="120" height="60" as="geometry" />
        </mxCell>
        <mxCell id="SUTdfqsNbuSgE_qNj4nx-15" value="PC2&lt;div&gt;192.168.1.2&lt;/div&gt;&lt;div&gt;VPN:192.168.2.2&lt;/div&gt;" style="rounded=1;whiteSpace=wrap;html=1;" vertex="1" parent="1">
          <mxGeometry x="380" y="610" width="120" height="60" as="geometry" />
        </mxCell>
        <mxCell id="SUTdfqsNbuSgE_qNj4nx-16" value="PC1&lt;div&gt;192.168.1.2&lt;/div&gt;" style="rounded=1;whiteSpace=wrap;html=1;" vertex="1" parent="1">
          <mxGeometry x="180" y="490" width="120" height="60" as="geometry" />
        </mxCell>
      </root>
    </mxGraphModel>
  </diagram>
</mxfile>
